name Walk7.mot
datacolumns 19
datarows 30
range 1.15000000 1.29500000
endheader

                time	   L_ground_force_vx	   L_ground_force_vy	   L_ground_force_vz	   L_ground_force_px	   L_ground_force_py	   L_ground_force_pz	   R_ground_force_vx	   R_ground_force_vy	   R_ground_force_vz	   R_ground_force_px	   R_ground_force_py	   R_ground_force_pz	   L_ground_torque_x	   L_ground_torque_y	   L_ground_torque_z	   R_ground_torque_x	   R_ground_torque_y	   R_ground_torque_z	
          1.15000000	         -2.97238646	         69.45291450	         -2.24451641	         -0.16126294	          0.00000000	         -0.01230680	          0.00000000	         -0.00000001	          0.00000000	         -0.00000000	          0.00000000	         -0.00000000	          0.00000000	          0.07873959	          0.00000000	          0.00000000	          0.00000000	          0.00000000	
          1.15500000	         -6.41536564	         99.50111404	         -3.11877150	         -0.20904912	          0.00000000	         -0.01592823	          0.00000000	         -0.00000001	          0.00000000	         -0.00000000	          0.00000000	         -0.00000000	          0.00000000	          0.13968299	          0.00000000	          0.00000000	          0.00000000	          0.00000000	
          1.16000000	        -10.99309220	        134.08825452	         -4.09746436	         -0.25784191	          0.00000000	         -0.01961623	          0.00000000	         -0.00000002	         -0.00000000	         -0.00000000	          0.00000000	         -0.00000000	          0.00000000	          0.21749547	          0.00000000	          0.00000000	          0.00000000	          0.00000000	
          1.16500000	        -16.77589313	        171.59748054	         -5.11888355	         -0.30361049	          0.00000000	         -0.02307822	          0.00000000	         -0.00000003	         -0.00000000	         -0.00000000	          0.00000000	         -0.00000000	          0.00000000	          0.31220662	          0.00000000	          0.00000000	          0.00000000	          0.00000000	
          1.17000000	        -23.72185292	        209.91534121	         -6.08283533	         -0.34366776	          0.00000000	         -0.02614735	          0.00000001	         -0.00000004	         -0.00000000	         -0.00000000	          0.00000000	         -0.00000000	          0.00000000	          0.42255127	          0.00000000	          0.00000000	          0.00000000	          0.00000000	
          1.17500000	        -31.62423515	        247.28959711	         -6.86025260	         -0.37674248	          0.00000000	         -0.02876096	          0.00000001	         -0.00000005	         -0.00000000	         -0.00000000	          0.00000000	         -0.00000000	          0.00000000	          0.54607662	          0.00000000	          0.00000000	         -0.00000000	          0.00000000	
          1.18000000	        -40.12049343	        282.58515325	         -7.33821779	         -0.40257312	          0.00000000	         -0.03092268	          0.00000001	         -0.00000006	         -0.00000000	         -0.00000000	          0.00000000	         -0.00000000	          0.00000000	          0.67919103	          0.00000000	          0.00000000	         -0.00000000	          0.00000000	
          1.18500000	        -48.76071076	        315.11868767	         -7.45138313	         -0.42156402	          0.00000000	         -0.03267659	          0.00000001	         -0.00000007	         -0.00000000	         -0.00000000	          0.00000000	         -0.00000000	          0.00000000	          0.81764731	          0.00000000	          0.00000000	         -0.00000000	          0.00000000	
          1.19000000	        -57.09155239	        344.59181891	         -7.18286839	         -0.43451287	          0.00000000	         -0.03408509	          0.00000001	         -0.00000008	         -0.00000000	         -0.00000000	          0.00000000	         -0.00000000	          0.00000000	          0.95727901	          0.00000000	          0.00000000	         -0.00000000	          0.00000000	
          1.19500000	        -64.74965492	        371.01288881	         -6.54933539	         -0.44240049	          0.00000000	         -0.03521804	          0.00000001	         -0.00000008	         -0.00000000	         -0.00000000	          0.00000000	         -0.00000000	          0.00000000	          1.09441066	          0.00000000	          0.00000000	         -0.00000000	          0.00000000	
          1.20000000	        -71.53460517	        394.58081341	         -5.58046163	         -0.44624261	          0.00000000	         -0.03614539	          0.00000001	         -0.00000007	         -0.00000000	          0.00000000	          0.00000000	          0.00000000	          0.00000000	          1.22656524	          0.00000000	          0.00000000	         -0.00000000	          0.00000000	
          1.20500000	        -77.41674761	        415.58845148	         -4.30913959	         -0.44699913	          0.00000000	         -0.03693010	          0.00000001	         -0.00000004	         -0.00000000	          0.00000000	          0.00000000	          0.00000000	          0.00000000	          1.35294621	          0.00000000	          0.00000000	         -0.00000000	          0.00000000	
          1.21000000	        -82.47056318	        434.35050309	         -2.77206112	         -0.44552577	          0.00000000	         -0.03762299	          0.00000000	         -0.00000000	         -0.00000000	          0.00000000	          0.00000000	          0.00000000	          0.00000000	          1.47384262	          0.00000000	          0.00000000	         -0.00000000	          0.00000000	
          1.21500000	        -86.78129448	        451.14903910	         -1.01400178	         -0.44255521	          0.00000000	         -0.03825872	         -0.00000001	          0.00000006	         -0.00000000	          0.00000000	          0.00000000	          0.00000000	          0.00000000	          1.58997251	          0.00000000	          0.00000000	         -0.00000000	          0.00000000	
          1.22000000	        -90.38324055	        466.21953585	          0.91074413	         -0.43869177	          0.00000000	         -0.03885814	         -0.00000003	          0.00000015	         -0.00000000	          0.00000000	          0.00000000	          0.00000000	          0.00000000	          1.70219824	          0.00000000	          0.00000000	         -0.00000000	          0.00000000	
          1.22500000	        -93.26286310	        479.79118860	          2.94770232	         -0.43441237	          0.00000000	         -0.03943311	         -0.00000005	          0.00000027	         -0.00000000	          0.00000000	          0.00000000	          0.00000000	          0.00000000	          1.81127335	          0.00000000	          0.00000000	         -0.00000000	          0.00000000	
          1.23000000	        -95.40863430	        492.10938284	          5.04877702	         -0.43007430	          0.00000000	         -0.03998958	         -0.00000008	          0.00000043	         -0.00000000	          0.00000000	          0.00000000	          0.00000000	          0.00000000	          1.91768455	          0.00000000	          0.00000000	         -0.00000000	          0.00000000	
          1.23500000	        -96.84888239	        503.40872854	          7.16811327	         -0.42592894	          0.00000000	         -0.04052729	         -0.00000011	          0.00000063	          0.00000000	          0.00000000	          0.00000000	          0.00000000	          0.00000000	          2.02172261	          0.00000000	          0.00000000	         -0.00000000	          0.00000000	
          1.24000000	        -97.64855367	        513.88651114	          9.26158740	         -0.42213792	          0.00000000	         -0.04104100	         -0.00000015	          0.00000085	          0.00000000	          0.00000000	          0.00000000	          0.00000000	          0.00000000	          2.12306301	          0.00000000	          0.00000000	         -0.00000000	          0.00000000	
          1.24500000	        -97.88294216	        523.69913067	         11.28956652	         -0.41879169	          0.00000000	         -0.04152467	         -0.00000019	          0.00000110	          0.00000000	          0.00000000	          0.00000000	          0.00000000	          0.00000000	          2.22024872	          0.00000000	          0.00000000	         -0.00000000	          0.00000000	
          1.25000000	        -97.61769998	        532.96417454	         13.21821391	         -0.41592858	          0.00000000	         -0.04197320	         -0.00000024	          0.00000135	          0.00000000	          0.00000000	          0.00000000	          0.00000000	          0.00000000	          2.31086783	          0.00000000	          0.00000000	          0.00000000	          0.00000000	
          1.25500000	        -96.90472293	        541.75608319	         15.01936000	         -0.41355117	          0.00000000	         -0.04238170	         -0.00000028	          0.00000158	          0.00000000	          0.00000000	          0.00000000	          0.00000000	          0.00000000	          2.39218313	          0.00000000	          0.00000000	          0.00000000	          0.00000000	
          1.26000000	        -95.78528128	        550.10180165	         16.67090194	         -0.41163680	          0.00000000	         -0.04274599	         -0.00000031	          0.00000173	          0.00000001	          0.00000000	          0.00000000	          0.00000000	          0.00000000	          2.46154640	          0.00000000	          0.00000000	          0.00000000	          0.00000000	
          1.26500000	        -94.29258210	        557.98707834	         18.15782073	         -0.41014614	          0.00000000	         -0.04306058	         -0.00000031	          0.00000176	          0.00000001	          0.00000000	          0.00000000	          0.00000000	          0.00000000	          2.51650434	          0.00000000	          0.00000000	          0.00000000	          0.00000000	
          1.27000000	        -92.45348259	        565.36961397	         19.47244728	         -0.40903131	          0.00000000	         -0.04331933	         -0.00000028	          0.00000159	          0.00000001	          0.00000000	          0.00000000	         -0.00000000	          0.00000000	          2.55495844	          0.00000000	          0.00000000	          0.00000000	          0.00000000	
          1.27500000	        -90.29099421	        572.19352075	         20.61403246	         -0.40824157	          0.00000000	         -0.04351748	         -0.00000020	          0.00000112	          0.00000001	         -0.00000000	          0.00000000	         -0.00000000	          0.00000000	          2.57543822	          0.00000000	          0.00000000	          0.00000000	          0.00000000	
          1.28000000	        -87.82856696	        578.40114711	         21.58755564	         -0.40772601	          0.00000000	         -0.04365287	         -0.00000005	          0.00000026	          0.00000001	         -0.00000000	          0.00000000	         -0.00000000	          0.00000000	          2.57704649	          0.00000000	          0.00000000	          0.00000000	          0.00000000	
          1.28500000	        -85.09280408	        583.94137964	         22.40264705	         -0.40743590	          0.00000000	         -0.04372525	          0.00000019	         -0.00000112	          0.00000001	         -0.00000000	          0.00000000	         -0.00000000	          0.00000000	          2.55907480	          0.00000000	          0.00000000	          0.00000000	          0.00000000	
          1.29000000	        -82.11386927	        588.77688926	         23.07138905	         -0.40732612	          0.00000000	         -0.04373617	          0.00000055	         -0.00000313	          0.00000001	         -0.00000000	          0.00000000	         -0.00000000	          0.00000000	          2.52111558	          0.00000000	          0.00000000	          0.00000000	          0.00000000	
          1.29500000	        -78.92476013	        592.88857343	         23.60547685	         -0.40735461	          0.00000000	         -0.04368978	          0.00000103	         -0.00000589	          0.00000001	         -0.00000000	          0.00000000	         -0.00000000	          0.00000000	          2.46337265	          0.00000000	          0.00000000	          0.00000000	          0.00000000	
